<svg xmlns="http://www.w3.org/2000/svg" viewBox="0 0 96 64" fill="none">
  <path d="M25 48a11.5 11.5 0 1 0 0-23 11.5 11.5 0 0 0 0 23ZM71 48a11.5 11.5 0 1 0 0-23 11.5 11.5 0 0 0 0 23Z" stroke="#8F6BE8" stroke-width="5" stroke-linecap="round"/>
  <path d="M25 36h17l12-20m-12 20h20m-20 0 11 10H25m28 0 18-10" stroke="#5D43C9" stroke-width="5" stroke-linecap="round" stroke-linejoin="round"/>
  <path d="M56 15l-8 15h9l-7 16 17-22h-10l7-9H56Z" fill="#52A6FF" stroke="#FFFFFF" stroke-width="2" stroke-linejoin="round"/>
  <path d="M68 19h13M72 12h8" stroke="#B59BFF" stroke-width="4" stroke-linecap="round"/>
</svg>
