<svg xmlns="http://www.w3.org/2000/svg" viewBox="0 0 96 64" fill="none">
  <path d="M22 50a10.5 10.5 0 1 0 0-21 10.5 10.5 0 0 0 0 21ZM58 50a10.5 10.5 0 1 0 0-21 10.5 10.5 0 0 0 0 21Z" stroke="#B59BFF" stroke-width="4.8" stroke-linecap="round"/>
  <path d="M22 40h15l9-17m-9 17h21m-21 0 10 9H22m25 0 11-9" stroke="#5D43C9" stroke-width="4.8" stroke-linecap="round" stroke-linejoin="round"/>
  <circle cx="48" cy="17" r="5.5" fill="#6E50D8"/>
  <path d="M47 24l-9 12 13 4 8 8" stroke="#6E50D8" stroke-width="5.4" stroke-linecap="round" stroke-linejoin="round"/>
  <circle cx="74" cy="22" r="5" fill="#52A6FF"/>
  <path d="M72 29l-8 10m8-10 9 6" stroke="#52A6FF" stroke-width="4.4" stroke-linecap="round" stroke-linejoin="round"/>
</svg>
