<svg xmlns="http://www.w3.org/2000/svg" viewBox="0 0 96 64" fill="none">
  <path d="M25 49a12 12 0 1 0 0-24 12 12 0 0 0 0 24ZM70 49a12 12 0 1 0 0-24 12 12 0 0 0 0 24Z" stroke="#8F6BE8" stroke-width="5" stroke-linecap="round"/>
  <path d="M25 37h18l10-19m-10 19h27m-27 0 11 11H25m29 0 16-11" stroke="#5D43C9" stroke-width="5" stroke-linecap="round" stroke-linejoin="round"/>
  <path d="M50 8c7 0 12 5 12 12H38c0-7 5-12 12-12Z" fill="#52A6FF"/>
  <path d="M39 20h23" stroke="#5D43C9" stroke-width="4" stroke-linecap="round"/>
  <path d="M50 24l-11 12m11-12 12 8m-15-2 10 16" stroke="#6E50D8" stroke-width="5.5" stroke-linecap="round" stroke-linejoin="round"/>
</svg>
