<svg xmlns="http://www.w3.org/2000/svg" viewBox="0 0 96 64" fill="none">
  <path d="M76 8 66 31l22-10-9-4-3-9Z" fill="#52A6FF" stroke="#5D43C9" stroke-width="3" stroke-linejoin="round"/>
  <path d="M23 49a11 11 0 1 0 0-22 11 11 0 0 0 0 22ZM61 49a11 11 0 1 0 0-22 11 11 0 0 0 0 22Z" stroke="#B59BFF" stroke-width="5" stroke-linecap="round"/>
  <path d="M23 38h16l10-18m-10 18h22m-22 0 10 10H23m26 0 12-10" stroke="#5D43C9" stroke-width="5" stroke-linecap="round" stroke-linejoin="round"/>
  <path d="M49 20h14" stroke="#52A6FF" stroke-width="4" stroke-linecap="round"/>
</svg>
