<svg xmlns="http://www.w3.org/2000/svg" viewBox="0 0 96 64" fill="none">
  <path d="M25 49a12 12 0 1 0 0-24 12 12 0 0 0 0 24ZM71 49a12 12 0 1 0 0-24 12 12 0 0 0 0 24Z" stroke="#B59BFF" stroke-width="5" stroke-linecap="round"/>
  <path d="M25 37h18l10-18m-10 18 19 1m-19-1 11 10H25m29 0 17-10" stroke="#6E50D8" stroke-width="5" stroke-linecap="round" stroke-linejoin="round"/>
  <circle cx="51" cy="12" r="7" fill="#6E50D8"/>
  <path d="M49 21l-10 13m10-13 13 9m-14-3 10 13" stroke="#6E50D8" stroke-width="6" stroke-linecap="round" stroke-linejoin="round"/>
  <path d="M10 30h9M7 39h8" stroke="#52A6FF" stroke-width="4" stroke-linecap="round"/>
</svg>
