<svg xmlns="http://www.w3.org/2000/svg" viewBox="0 0 96 64" fill="none">
  <path d="M26 49a12 12 0 1 0 0-24 12 12 0 0 0 0 24ZM70 49a12 12 0 1 0 0-24 12 12 0 0 0 0 24Z" fill="#EFE9FF" stroke="#8F6BE8" stroke-width="4.5"/>
  <path d="M24 37c9 1 17 1 24-1 7-1 15-2 24 0" stroke="#52A6FF" stroke-width="5" stroke-linecap="round"/>
  <path d="M26 37h17l10-17m-10 17h27m-27 0 11 11H26m28 0 16-11" stroke="#6E50D8" stroke-width="5.5" stroke-linecap="round" stroke-linejoin="round"/>
  <path d="M53 20c3-3 7-4 12-3" stroke="#6E50D8" stroke-width="5.5" stroke-linecap="round"/>
</svg>
