<svg preserveAspectRatio="none" width="100%" height="100%" overflow="visible" style="display: block;" viewBox="0 0 25.2915 41.3381" fill="none" xmlns="http://www.w3.org/2000/svg">
<g id="Group 162564">
<g id="Group 162550">
<path id="Vector 25" d="M4.94248 25.739C7.89595 26.264 8.36137 26.3733 8.52222 26.4962C8.57752 26.603 8.57936 26.8002 8.41068 27.308C8.242 27.8158 7.90274 28.6283 7.55321 29.4653" stroke="var(--stroke-0, #5454D4)" stroke-width="2" stroke-linecap="round" stroke-linejoin="round"/>
<path id="Vector 26" d="M13.0302 26.7353C12.4751 28.4679 12.1392 29.4799 12.1064 29.6928C12.1235 29.7862 12.2091 29.85 12.7044 29.945C13.1996 30.04 14.1018 30.1642 15.0011 30.3646" stroke="var(--stroke-0, #5454D4)" stroke-width="2" stroke-linecap="round" stroke-linejoin="round"/>
<path id="Vector 27" d="M19.2582 28.3157C19.9551 28.6629 20.652 29.01 21.0707 29.2138C21.4894 29.4176 21.6089 29.4674 21.557 29.5308" stroke="var(--stroke-0, #5454D4)" stroke-width="2" stroke-linecap="round" stroke-linejoin="round"/>
<path id="Vector 28" d="M18.8658 28.2367C18.1275 30.005 17.6174 31.2265 17.4925 31.7271C17.6407 31.9769 18.1829 32.035 19.253 32.2539C19.5066 32.3309 19.6977 32.4107 19.8947 32.493" stroke="var(--stroke-0, #5454D4)" stroke-width="2" stroke-linecap="round" stroke-linejoin="round"/>
</g>
<circle id="Ellipse 66" cx="12.3712" cy="5" r="4" stroke="var(--stroke-0, #5454D4)" stroke-width="2" stroke-linecap="round" stroke-linejoin="round"/>
<circle id="Ellipse 67" cx="12.6458" cy="28.6924" r="11.6458" stroke="var(--stroke-0, #5454D4)" stroke-width="2" stroke-linecap="round" stroke-linejoin="round"/>
<path id="Vector 110" d="M12.3712 9L12.3712 16" stroke="var(--stroke-0, #5454D4)" stroke-width="2" stroke-linecap="round" stroke-linejoin="round"/>
</g>
</svg>
