<svg preserveAspectRatio="none" width="100%" height="100%" overflow="visible" style="display: block;" viewBox="0 0 69 69" fill="none" xmlns="http://www.w3.org/2000/svg">
<g id="Icon">
<path id="Oval" fill-rule="evenodd" clip-rule="evenodd" d="M34.5 69C53.5538 69 69 53.5538 69 34.5C69 15.4462 53.5538 0 34.5 0C15.4462 0 0 15.4462 0 34.5C0 53.5538 15.4462 69 34.5 69Z" fill="var(--fill-0, #5454D4)" fill-opacity="0.1"/>
<g id="vuesax/linear/code">
<path id="Union" d="M45.4728 33.4533L44.5284 33.1243L44.5284 33.1243L45.4728 33.4533ZM25.3947 33.4533L26.339 33.1243L26.339 33.1243L25.3947 33.4533ZM25.4386 42.3601L24.54 41.9213L25.4386 42.3601ZM45.4289 42.3601L44.5303 42.7989L45.4289 42.3601ZM45.4453 23.3627L45.1469 22.4083L45.4453 23.3627ZM48.0017 25.7481L47.0474 25.4492C46.3265 27.7511 45.3878 30.6576 44.5284 33.1243L45.4728 33.4533L46.4171 33.7823C47.2862 31.2876 48.2319 28.359 48.956 26.047L48.0017 25.7481ZM45.4728 33.4533L44.5284 33.1243C43.8125 35.1794 43.4467 36.8758 43.4517 38.4349C43.4568 40.0146 43.842 41.3895 44.5303 42.7989L45.4289 42.3601L46.3274 41.9213C45.7454 40.7293 45.4556 39.6515 45.4517 38.4285C45.4477 37.1849 45.739 35.7286 46.4171 33.7823L45.4728 33.4533ZM43.6053 45.6008V44.6008H27.2622V45.6008V46.6008H43.6053V45.6008ZM25.4386 42.3601L26.3372 42.7989C27.0254 41.3895 27.4107 40.0147 27.4157 38.4349C27.4207 36.8758 27.0549 35.1794 26.339 33.1243L25.3947 33.4533L24.4503 33.7823C25.1284 35.7287 25.4197 37.1849 25.4157 38.4285C25.4118 39.6515 25.1221 40.7293 24.54 41.9213L25.4386 42.3601ZM25.3947 33.4533L26.339 33.1243C25.4797 30.6578 24.5414 27.7516 23.8208 25.4498L22.8665 25.7486L21.9121 26.0473C22.6359 28.3593 23.5813 31.2878 24.4503 33.7823L25.3947 33.4533ZM25.4234 23.3629L25.125 24.3173C27.7523 25.1387 31.3453 25.7782 34.9213 24.4886L34.5821 23.5479L34.2429 22.6072C31.2679 23.68 28.1791 23.1767 25.7218 22.4085L25.4234 23.3629ZM36.2853 23.5479L35.9461 24.4886C39.5226 25.7783 43.1162 25.1387 45.7437 24.3172L45.4453 23.3627L45.1469 22.4083C42.6893 23.1767 39.6 23.6802 36.6245 22.6072L36.2853 23.5479ZM34.5821 23.5479L34.9213 24.4886C35.2509 24.3698 35.6165 24.3698 35.9461 24.4886L36.2853 23.5479L36.6245 22.6072C35.8564 22.3303 35.011 22.3303 34.2429 22.6072L34.5821 23.5479ZM27.2622 45.6008V44.6008C26.5385 44.6008 25.8887 43.7173 26.3372 42.7989L25.4386 42.3601L24.54 41.9213C23.5761 43.8953 24.7671 46.6008 27.2622 46.6008V45.6008ZM45.4289 42.3601L44.5303 42.7989C44.9787 43.7173 44.3289 44.6008 43.6053 44.6008V45.6008V46.6008C46.1004 46.6008 47.2914 43.8952 46.3274 41.9213L45.4289 42.3601ZM22.8665 25.7486L23.8208 25.4498C23.6964 25.0524 23.8172 24.733 24.0481 24.5218C24.2898 24.3006 24.6809 24.1785 25.125 24.3173L25.4234 23.3629L25.7218 22.4085C24.5982 22.0571 23.4654 22.344 22.6979 23.0463C21.9195 23.7586 21.5458 24.8771 21.9121 26.0473L22.8665 25.7486ZM48.0017 25.7481L48.956 26.047C49.3224 24.8769 48.9489 23.7584 48.1706 23.0461C47.4032 22.3438 46.2705 22.057 45.1469 22.4083L45.4453 23.3627L45.7437 24.3172C46.1878 24.1783 46.5788 24.3005 46.8203 24.5215C47.051 24.7326 47.1718 25.0519 47.0474 25.4492L48.0017 25.7481Z" fill="var(--stroke-0, #5454D4)"/>
<path id="Vector 117" d="M25 32.502C26.3333 35.002 29.6667 40.002 33 40.502" stroke="var(--stroke-0, #5454D4)" stroke-width="2" stroke-linecap="round" stroke-linejoin="round"/>
</g>
</g>
</svg>
