<svg preserveAspectRatio="none" width="100%" height="100%" overflow="visible" style="display: block;" viewBox="0 0 69 69" fill="none" xmlns="http://www.w3.org/2000/svg">
<g id="Icon">
<path id="Oval" fill-rule="evenodd" clip-rule="evenodd" d="M34.5 69C53.5538 69 69 53.5538 69 34.5C69 15.4462 53.5538 0 34.5 0C15.4462 0 0 15.4462 0 34.5C0 53.5538 15.4462 69 34.5 69Z" fill="var(--fill-0, #FEDC5A)" fill-opacity="0.26"/>
<g id="vuesax/linear/code">
<path id="Union" d="M47.7461 36.6294H48.7461V36.6294L47.7461 36.6294ZM35.373 49.0024V50.0024V50.0024V49.0024ZM23 36.6294L22 36.6294V36.6294H23ZM41.8634 19.6608L42.6139 20.3217L41.8634 19.6608ZM39.3407 24.907L39.0202 25.8542L39.3407 24.907ZM39.3407 24.907L39.0202 25.8542C43.5137 27.3745 46.746 31.6256 46.7461 36.6294L47.7461 36.6294L48.7461 36.6294C48.746 30.7421 44.9422 25.7464 39.6612 23.9597L39.3407 24.907ZM47.7461 36.6294H46.7461C46.7461 42.9105 41.6542 48.0024 35.373 48.0024V49.0024V50.0024C42.7588 50.0024 48.7461 44.0151 48.7461 36.6294H47.7461ZM35.373 49.0024V48.0024C29.0919 48.0024 24 42.9105 24 36.6294H23H22C22 44.0151 27.9873 50.0024 35.373 50.0024V49.0024ZM23 36.6294L24 36.6294C24.0001 31.6526 27.1976 27.4205 31.6534 25.8792L31.3264 24.9342L30.9995 23.9891C25.7631 25.8004 22.0001 30.7738 22 36.6294L23 36.6294ZM31.8503 23.1536L32.5908 22.4815L29.5112 19.0888L28.7708 19.7609L28.0303 20.433L31.1099 23.8257L31.8503 23.1536ZM29.5036 18.0888L29.5112 19.0888L41.1129 19L41.1052 18L41.0976 17L29.4959 17.0889L29.5036 18.0888ZM41.8634 19.6608L41.1129 19L38.0498 22.4787L38.8004 23.1396L39.5509 23.8004L42.6139 20.3217L41.8634 19.6608ZM41.1052 18L41.1129 19V19L41.8634 19.6608L42.6139 20.3217C43.7562 19.0244 42.826 16.9868 41.0976 17L41.1052 18ZM31.3264 24.9342L31.6534 25.8792C32.9616 25.4267 33.6728 23.6735 32.5908 22.4815L31.8503 23.1536L31.1099 23.8257C31.1129 23.8291 31.1129 23.8298 31.112 23.8281C31.1113 23.8266 31.1113 23.8259 31.1115 23.8272C31.1121 23.8304 31.114 23.8462 31.106 23.8724C31.0877 23.9319 31.0437 23.9738 30.9995 23.9891L31.3264 24.9342ZM28.7708 19.7609L29.5112 19.0888V19.0888L29.5036 18.0888L29.4959 17.0889C27.7677 17.1021 26.8687 19.1533 28.0303 20.433L28.7708 19.7609ZM39.3407 24.907L39.6612 23.9597C39.6172 23.9448 39.5736 23.9038 39.5552 23.8459C39.5471 23.8203 39.5487 23.805 39.5493 23.8019C39.5495 23.8007 39.5495 23.8013 39.5488 23.8028C39.548 23.8044 39.548 23.8037 39.5509 23.8004L38.8004 23.1396L38.0498 22.4787C36.9925 23.6795 37.7148 25.4126 39.0202 25.8542L39.3407 24.907Z" fill="var(--stroke-0, #FFCF18)"/>
</g>
</g>
</svg>
