<svg preserveAspectRatio="none" width="100%" height="100%" overflow="visible" style="display: block;" viewBox="0 0 69 69" fill="none" xmlns="http://www.w3.org/2000/svg">
<g id="Icon">
<path id="Oval" fill-rule="evenodd" clip-rule="evenodd" d="M34.5 69C53.5538 69 69 53.5538 69 34.5C69 15.4462 53.5538 0 34.5 0C15.4462 0 0 15.4462 0 34.5C0 53.5538 15.4462 69 34.5 69Z" fill="var(--fill-0, #37A9F0)" fill-opacity="0.1"/>
<g id="vuesax/linear/layer">
<path id="Union" d="M43.0801 31.7983H44.0801V31.7983L43.0801 31.7983ZM43.0801 46.9507L44.0801 46.9507V46.9507H43.0801ZM37.0312 53.0005V54.0005H37.0313L37.0312 53.0005ZM26 46.9507H25V46.9507L26 46.9507ZM26 31.7983L25 31.7983V31.7983H26ZM40.9356 27.1783L40.2898 27.9417C41.3864 28.8694 42.08 30.2523 42.0801 31.7984L43.0801 31.7983L44.0801 31.7983C44.08 29.6392 43.1081 27.7062 41.5814 26.4148L40.9356 27.1783ZM43.0801 31.7983H42.0801V46.9507H43.0801H44.0801V31.7983H43.0801ZM43.0801 46.9507L42.0801 46.9507C42.08 49.7395 39.8196 52.0004 37.0312 52.0005L37.0312 53.0005L37.0313 54.0005C40.9246 54.0003 44.08 50.8437 44.0801 46.9507L43.0801 46.9507ZM37.0312 53.0005V52.0005H32.0498V53.0005V54.0005H37.0312V53.0005ZM32.0498 53.0005V52.0005C29.2611 52.0005 27 49.7394 27 46.9507L26 46.9507L25 46.9507C25.0001 50.8439 28.1565 54.0005 32.0498 54.0005V53.0005ZM26 46.9507H27V31.7983H26H25V46.9507H26ZM26 31.7983L27 31.7984C27.0001 30.1978 27.744 28.772 28.9089 27.8456L28.2865 27.063L27.6641 26.2803C26.0428 27.5696 25.0001 29.5621 25 31.7983L26 31.7983ZM29.8936 24.2886H30.8936V24.0822H29.8936H28.8936V24.2886H29.8936ZM32.5905 21.3853V22.3853H36.7416V21.3853V20.3853H32.5905V21.3853ZM39.4385 24.0822H38.4385V24.4785H39.4385H40.4385V24.0822H39.4385ZM36.7416 21.3853V22.3853C37.6787 22.3853 38.4385 23.145 38.4385 24.0822H39.4385H40.4385C40.4385 22.0404 38.7833 20.3853 36.7416 20.3853V21.3853ZM29.8936 24.0822H30.8936C30.8936 23.145 31.6533 22.3853 32.5905 22.3853V21.3853V20.3853C30.5487 20.3853 28.8936 22.0404 28.8936 24.0822H29.8936ZM28.2865 27.063L28.9089 27.8456C29.8811 27.0725 30.8936 25.8559 30.8936 24.2886H29.8936H28.8936C28.8936 24.9582 28.4427 25.6611 27.6641 26.2803L28.2865 27.063ZM40.9356 27.1783L41.5814 26.4148C40.8549 25.8002 40.4385 25.1217 40.4385 24.4785H39.4385H38.4385C38.4385 25.9836 39.3761 27.1689 40.2898 27.9417L40.9356 27.1783Z" fill="var(--stroke-0, #37A9F0)"/>
<rect id="Rectangle 9548" x="30.3018" y="15" width="7.93989" height="4.53708" fill="var(--fill-0, #EBF7FE)" stroke="var(--stroke-0, #37A9F0)" stroke-width="2" stroke-linecap="round" stroke-linejoin="round"/>
<rect id="Rectangle 9546" x="28.7894" y="18.4028" width="11.3427" height="4.91517" fill="var(--fill-0, #EBF7FE)" stroke="var(--stroke-0, #37A9F0)" stroke-width="2" stroke-linecap="round" stroke-linejoin="round"/>
<path id="Ellipse 60" opacity="0.42" d="M38.5855 39.066C38.5855 41.3002 36.9756 43.1113 34.9897 43.1113C33.0037 43.1113 31.3938 41.3002 31.3938 39.066C31.3938 36.8318 34.9897 32.3237 34.9897 32.3237C34.9897 32.3237 38.5855 36.8318 38.5855 39.066Z" fill="var(--fill-0, #37A9F0)"/>
</g>
</g>
</svg>
