<svg width="1200" height="734" viewBox="0 0 1200 734" fill="none" xmlns="http://www.w3.org/2000/svg">
  <rect width="1200" height="734" fill="#F9FBF7"/>
  <g opacity="0.58">
    <path d="M707 -34C786 27 746 118 830 148C934 185 1058 119 1147 191C1236 263 1210 402 1138 489C1057 587 910 587 807 548C703 509 635 404 627 293C620 189 622 32 707 -34Z" fill="#DDEDD9"/>
    <path d="M1035 -19C1121 18 1143 93 1197 161V0H1035V-19Z" fill="#DCEBD7"/>
    <path d="M72 341C133 255 232 230 335 252C459 279 548 356 567 473C585 584 511 687 395 715C285 742 154 697 80 609C7 520 7 432 72 341Z" fill="#E3F0DF"/>
    <path d="M520 74C586 46 650 72 699 112C760 162 775 250 745 321C718 391 645 427 569 414C486 400 419 341 408 264C397 186 448 105 520 74Z" fill="#EEF6EB"/>
  </g>
  <g opacity="0.56" stroke="#DADADA" stroke-width="2">
    <path d="M-14 156C90 151 203 156 299 207C382 252 455 312 547 329C646 346 742 303 840 287C945 270 1061 276 1213 318"/>
    <path d="M54 492C160 468 265 447 374 445C498 444 596 495 712 523C852 557 982 543 1208 512"/>
    <path d="M199 -10C225 93 282 162 352 235C433 320 479 413 488 553C492 613 504 674 540 741"/>
    <path d="M639 -18C625 90 608 197 618 306C630 427 671 538 694 739"/>
    <path d="M897 -8C872 106 863 214 893 335C918 434 932 550 906 743"/>
  </g>
  <g opacity="0.68" stroke="#E6C976" stroke-width="6" stroke-linecap="round">
    <path d="M-18 676C105 645 233 635 349 594C454 557 537 477 648 437C768 393 907 413 1042 398C1103 391 1153 380 1217 365"/>
    <path d="M447 -14C453 88 478 176 525 262C581 363 628 464 650 584C659 634 661 684 660 752"/>
    <path d="M1002 -7C1008 94 1002 184 965 276C928 368 889 446 890 555C891 619 903 681 925 745"/>
  </g>
  <g opacity="0.72" stroke="#8BBBE5" stroke-linecap="round">
    <path d="M87 -6C110 83 169 145 243 198C317 250 371 290 404 360C438 432 431 517 462 586C496 662 580 698 646 747" stroke-width="34"/>
    <path d="M617 -7C606 88 595 175 600 271C604 351 627 428 670 492C724 573 808 627 901 660C996 694 1101 688 1219 676" stroke-width="30"/>
    <path d="M-8 336C72 349 152 354 232 341C321 326 390 289 466 240" stroke-width="18"/>
  </g>
  <g opacity="0.42" stroke="#A18AF6" stroke-width="7" stroke-linecap="round" stroke-linejoin="round">
    <path d="M232 44C285 26 339 49 366 93C393 136 357 174 389 210C437 264 511 224 552 274C597 330 546 390 590 447C628 496 699 468 741 508C784 548 772 622 832 649C897 678 948 614 1001 577C1064 533 1114 568 1164 518C1220 462 1179 366 1114 332C1047 297 990 356 927 321C866 287 895 212 843 171C797 136 747 171 700 145C650 117 669 58 615 34C568 13 525 49 486 78C430 119 375 98 326 65C291 42 261 33 232 44Z"/>
    <path d="M232 44C213 111 235 178 197 237C162 291 93 303 65 364C31 438 83 511 148 552C210 591 283 590 350 566C419 541 485 550 552 579C614 606 673 608 741 508"/>
  </g>
  <g opacity="0.9" fill="#2D91DE" font-family="Noto Sans KR, Arial, sans-serif" font-size="22" font-weight="700">
    <text x="148" y="118">남한강</text>
    <text x="596" y="266">금당천</text>
    <text x="171" y="643">양화천</text>
    <text x="583" y="618">점봉천</text>
  </g>
  <g fill="#1D1D1D" font-family="Noto Sans KR, Arial, sans-serif" font-weight="800">
    <text x="178" y="92" font-size="28">대신면</text>
    <text x="121" y="272" font-size="27">흥천면</text>
    <text x="272" y="457" font-size="26">세종대왕면</text>
    <text x="660" y="140" font-size="26">북내면</text>
    <text x="816" y="390" font-size="27">강천면</text>
    <text x="505" y="455" font-size="40">여주</text>
  </g>
  <g opacity="0.74" fill="#3E3E3E" font-family="Noto Sans KR, Arial, sans-serif" font-size="18" font-weight="600">
    <text x="283" y="210">백석리섬</text>
    <text x="429" y="374">여주시청</text>
    <text x="574" y="100">345</text>
    <text x="801" y="308">328</text>
    <text x="328" y="338">333</text>
    <text x="663" y="514">345</text>
    <text x="923" y="603">50</text>
  </g>
  <g>
    <path d="M621 402C621 375.49 642.49 354 669 354C695.51 354 717 375.49 717 402C717 438 669 494 669 494C669 494 621 438 621 402Z" fill="#A36CF2"/>
    <circle cx="669" cy="402" r="27" fill="#FFFFFF"/>
    <text x="669" y="410" text-anchor="middle" fill="#8A52E8" font-family="Noto Sans KR, Arial, sans-serif" font-size="18" font-weight="800">출발</text>
  </g>
</svg>
